<svg width="196" height="96" viewBox="0 0 196 96" fill="none" xmlns="http://www.w3.org/2000/svg">
<path d="M98.0132 1C93.7231 1 91.5 3.29249 91.5 6C91.5 8.5 92.5 10 96 12L78.9997 55.0001L54.9997 24C60.9797 19.82 55.8697 13.16 50.0397 14.47C45.2697 15.55 42.3497 22.37 50.9997 25L45.9997 56.0001L12.5 35C13.5 33 14.5 32 14 29.5C13.1326 25.163 6.90002 23.88 3.50002 27C-0.309989 30.49 2.00002 38 10.5 36.5L37.0497 79.0001C39.1597 82.3601 44.5 92 48.5 94.9901C52.5 94.9901 94.2231 95 98 95M98 41L96.9997 41C95.6797 43.5001 90.5 50.9155 90.5 53.5C90.5 55.5 95.0097 62.2401 96.9997 66.0001L98 66" stroke="black" stroke-width="1.33333"/>
<path d="M97.9868 1C102.277 1 104.5 3.29249 104.5 6C104.5 8.5 103.5 10 100 12L117 55.0001L141 24C135.02 19.82 140.13 13.16 145.96 14.47C150.73 15.55 153.65 22.37 145 25L150 56.0001L183.5 35C182.5 33 181.5 32 182 29.5C182.867 25.163 189.1 23.88 192.5 27C196.31 30.49 194 38 185.5 36.5L158.95 79.0001C156.84 82.3601 151.5 92 147.5 94.9901C143.5 94.9901 101.777 95 98 95M98 41L99.0003 41C100.32 43.5001 105.5 50.9155 105.5 53.5C105.5 55.5 100.99 62.2401 99.0003 66.0001L98 66" stroke="black" stroke-width="1.33333"/>
</svg>
