<?xml version="1.0" encoding="UTF-8" standalone="no"?>
<!DOCTYPE svg PUBLIC "-//W3C//DTD SVG 20010904//EN"
              "http://www.w3.org/TR/2001/REC-SVG-20010904/DTD/svg10.dtd">

<svg xmlns="http://www.w3.org/2000/svg"
     width="2.77778in" height="1.36111in"
     viewBox="0 0 200 98">
  <path id="Selection #1"
        fill="none" stroke="black" stroke-width="1"
        d="M 98.00,13.00
           C 96.19,11.90 94.53,11.13 93.84,8.90
             92.24,3.67 99.44,0.17 103.72,3.60
             109.79,8.39 101.64,11.08 103.72,18.00
             103.72,18.00 119.00,56.00 119.00,56.00
             119.00,56.00 143.00,25.00 143.00,25.00
             137.02,20.82 142.13,14.16 147.96,15.47
             152.73,16.55 155.65,23.37 147.00,26.00
             147.00,26.00 152.00,57.00 152.00,57.00
             152.00,57.00 186.00,37.00 186.00,37.00
             185.23,35.05 184.25,33.23 184.87,31.06
             186.08,26.78 192.28,25.40 195.68,28.52
             199.49,32.01 197.39,39.85 187.00,37.00
             187.00,37.00 160.95,80.00 160.95,80.00
             158.84,83.36 152.65,94.34 149.79,95.99
             147.33,97.38 138.59,96.01 135.00,95.99
             135.00,95.99 63.00,95.99 63.00,95.99
             59.56,96.04 52.94,97.52 50.33,95.99
             47.78,94.47 42.44,84.99 40.58,82.00
             40.58,82.00 18.95,47.00 18.95,47.00
             17.53,44.73 14.99,40.21 12.79,38.88
             9.97,37.17 4.19,38.71 2.66,33.89
             1.05,28.87 7.98,24.68 12.57,28.10
             16.04,30.68 13.61,33.79 16.45,36.79
             16.45,36.79 29.00,45.19 29.00,45.19
             35.17,49.02 42.54,54.12 49.00,57.00
             49.00,57.00 54.00,27.00 54.00,27.00
             43.93,22.26 48.45,16.47 53.01,15.47
             55.94,14.83 59.18,16.15 60.08,19.11
             61.36,22.44 58.74,24.44 60.08,28.00
             60.68,30.18 65.37,35.92 67.00,38.00
             67.00,38.00 81.00,56.00 81.00,56.00
             81.00,56.00 98.00,13.00 98.00,13.00 Z
           M 101.00,42.00
           C 101.00,42.00 99.00,42.00 99.00,42.00
             97.43,44.62 92.99,51.30 92.77,54.00
             92.48,57.51 97.06,64.02 99.00,67.00
             99.00,67.00 101.00,67.00 101.00,67.00
             102.99,63.24 107.29,57.26 106.45,53.00
             105.99,50.65 102.32,44.50 101.00,42.00 Z" />
</svg>
